<svg xmlns="http://www.w3.org/2000/svg" xmlns:xlink="http://www.w3.org/1999/xlink" viewBox="0 0 500 500"><defs><clipPath id="freepik--clip-path--inject-23"><rect x="192.32" y="287.68" width="93.38" height="75.4" style="fill:#9c9c9c;stroke:#263238;stroke-linecap:round;stroke-linejoin:round"></rect></clipPath><clipPath id="freepik--clip-path-2--inject-23"><path d="M385.89,352.13c-2.16,3.51-3.3,7.56-5.41,11.14A48,48,0,0,1,338,386.9c-16.54-.22-27.35-3-39.22-7.85s-21.42-10.39-25.44-16.32S254.87,342,248.09,334.11s-6.15-9.12-11-10.82-2.54-7.2,3.82-11.66,13.78-1.06,17.17,3,13.15,8.91,26.29,16.11,29.26,8.91,39.43,5.73,13.57-13.57,13.79-24.38-3.19-21-13.15-34.35-18.44-21.2-16.32-31.37,16.53-28,22.68-26.29,14.84,16.32,38.8,22,42.61,4.45,44.31,3,11.87-18.65,18.23-21.62,12.93,2.75,12.51,7.21S421.93,280.47,419,288.31s-29.69,58.31-29.69,58.31Z" style="fill:#CA0000;stroke:#263238;stroke-linecap:round;stroke-linejoin:round"></path></clipPath></defs><g id="freepik--background-simple--inject-23"><path d="M385.78,99.67S345.63,61.75,289,73.2s-83.28,57.6-117.48,88.17c-17.91,16-43,20.59-63.74,32.41C41.43,231.59,44,327.5,90.19,367c40,34.15,92.61,41.2,163,23.2s120.56-28.23,167.91-90.87S434.94,150.75,385.78,99.67Z" style="fill:#CA0000"></path><path d="M385.78,99.67S345.63,61.75,289,73.2s-83.28,57.6-117.48,88.17c-17.91,16-43,20.59-63.74,32.41C41.43,231.59,44,327.5,90.19,367c40,34.15,92.61,41.2,163,23.2s120.56-28.23,167.91-90.87S434.94,150.75,385.78,99.67Z" style="fill:#fff;opacity:0.7000000000000001"></path></g><g id="freepik--Picture--inject-23"><rect x="181.18" y="86.66" width="115.65" height="145.47" style="fill:#787878"></rect><rect x="187.29" y="94.35" width="103.43" height="130.09" style="fill:#fff"></rect><g style="opacity:0.4"><path d="M239.3,119.59l.16-8.47,3.15.06-.17,8.48a41.08,41.08,0,0,1,12.83,2.76,18.54,18.54,0,0,1,7.25,5,9.9,9.9,0,0,1,2.52,6.71,6.33,6.33,0,0,1-2.15,4.76,7.15,7.15,0,0,1-5.12,1.85,6.09,6.09,0,0,1-3.89-1.36,3.9,3.9,0,0,1-1.54-3.21,5,5,0,0,1,.67-2.39l1.3-2.09a6.06,6.06,0,0,0-.91-6.91,10.43,10.43,0,0,0-4.7-2.74,32.32,32.32,0,0,0-6.28-1.13l-.61,30.5.7.35q12.41,6,17.49,11a24.81,24.81,0,0,1,5.21,7.33,18.34,18.34,0,0,1,1.76,8,16.49,16.49,0,0,1-3.56,10A21.41,21.41,0,0,1,254,195a46.9,46.9,0,0,1-13.07,2.75l-.18,9.09-3.15-.06.17-8.92a43.06,43.06,0,0,1-13.25-2.44,25.82,25.82,0,0,1-10.61-6.35,12.22,12.22,0,0,1-3.64-8.83,8.61,8.61,0,0,1,2.57-6.17,7.93,7.93,0,0,1,6-2.42,5.92,5.92,0,0,1,3.79,1.27A3.75,3.75,0,0,1,224,176c0,1.27-.92,2.79-2.68,4.57a14.37,14.37,0,0,0-2,2.52,4.69,4.69,0,0,0-.56,2.22,8,8,0,0,0,2.37,5.64,16,16,0,0,0,6.6,4.11,30.36,30.36,0,0,0,9.42,1.52h.56l.72-36.41-4-1.92q-5.61-2.73-8.55-4.52a35.39,35.39,0,0,1-5.28-3.9q-6.12-5.66-6-12.73a14.43,14.43,0,0,1,2.83-8.28,18.92,18.92,0,0,1,7.47-6.08A35.8,35.8,0,0,1,239.3,119.59Zm0,1.23a26.43,26.43,0,0,0-7.9,1.24,12.6,12.6,0,0,0-5.94,4.39,11.66,11.66,0,0,0-2.37,6.91,12.3,12.3,0,0,0,3.11,8.36,19.22,19.22,0,0,0,4,3.59,81,81,0,0,0,7.82,4.27l.69.35Zm1.65,75.68a26.44,26.44,0,0,0,5.31-.78A14.84,14.84,0,0,0,250.1,194a14.4,14.4,0,0,0,5-5.34,15.39,15.39,0,0,0,2-7.3q.22-11.2-15.43-19.61Z" style="fill:#CA0000"></path></g></g><g id="freepik--Bottle--inject-23"><polygon points="310.07 196.6 304.1 196.6 302.29 197.71 302.29 199.78 304.1 200.88 310.07 200.88 311.88 199.78 311.88 197.71 310.07 196.6" style="fill:#949494;stroke:#263238;stroke-linecap:round;stroke-linejoin:round;stroke-width:0.8885921835899353px"></polygon><rect x="302.29" y="197.71" width="9.59" height="2.07" style="fill:#6e6e6e;stroke:#263238;stroke-linecap:round;stroke-linejoin:round;stroke-width:0.8885921835899353px"></rect><rect x="303.26" y="200.82" width="7.45" height="1.1" style="fill:#fff;stroke:#263238;stroke-linecap:round;stroke-linejoin:round;stroke-width:0.8885921835899353px"></rect><rect x="303.91" y="201.98" width="6.16" height="11.6" style="fill:#fff;stroke:#263238;stroke-linecap:round;stroke-linejoin:round;stroke-width:0.8885921835899353px"></rect><path d="M318.24,242a1,1,0,0,1-.06-.49c.22-2.21,1.84-18.38,1.66-19.71s-2.34-1.94-5.51-3.63a7.71,7.71,0,0,1-3.89-4.34l-1.17-.52h-4.7l-1.18.52a7.71,7.71,0,0,1-3.89,4.34c-3.17,1.69-5.31,2.2-5.51,3.63s1.44,17.5,1.66,19.71a1,1,0,0,1-.06.49l-.5,1.43a1.14,1.14,0,0,0,.33,1.23h0a1.14,1.14,0,0,0,.74.28h21.51a1.14,1.14,0,0,0,.74-.28h0a1.14,1.14,0,0,0,.33-1.23Z" style="fill:#666;stroke:#263238;stroke-linecap:round;stroke-linejoin:round;stroke-width:0.8885921835899353px"></path><path d="M315,221.78H298.79a.72.72,0,0,0-.72.72v6.57a.72.72,0,0,0,.72.72h3.34a5.23,5.23,0,0,0,9.57,0H315a.72.72,0,0,0,.72-.72V222.5A.72.72,0,0,0,315,221.78Z" style="fill:#fff;stroke:#263238;stroke-linecap:round;stroke-linejoin:round;stroke-width:0.8885921835899353px"></path><path d="M310.71,207.17h-7.45v1.1h.34a13.88,13.88,0,0,0-.05,4.8h-.29v1.1h7.45v-1.1h-.27a12,12,0,0,0,0-4.8h.29Z" style="fill:#fff;stroke:#263238;stroke-linecap:round;stroke-linejoin:round;stroke-width:0.8885921835899353px"></path><polygon points="295.36 244.21 281.7 244.21 278.77 227.66 298.29 227.66 295.36 244.21" style="fill:#fff;stroke:#263238;stroke-linecap:round;stroke-linejoin:round"></polygon><polygon points="293.96 242.51 283.1 242.51 280.77 233.18 296.29 233.18 293.96 242.51" style="fill:#666;opacity:0.4"></polygon></g><g id="freepik--Plants--inject-23"><polygon points="141.13 215.13 128.09 196.62 141.55 211.34 137.76 195.36 142.39 203.77 134.82 172.23 146.17 201.25 138.6 154.57 147.43 187.37 148.28 167.18 152.48 183.59 158.79 154.57 156.69 196.2 162.57 182.75 160.47 199.99 167.62 189.89 159.21 207.98 168.46 200.83 158.37 217.23 140.71 217.65 141.13 215.13" style="fill:#CA0000;stroke:#919191;stroke-miterlimit:10"></polygon><polygon points="159.47 244.71 142.49 244.71 136.83 213.07 165.13 213.07 159.47 244.71" style="fill:#666;stroke:#263238;stroke-linecap:round;stroke-linejoin:round"></polygon></g><g id="freepik--Fireplace--inject-23"><line x1="427.11" y1="401.07" x2="435.26" y2="401.07" style="fill:none;stroke:#263238;stroke-linecap:round;stroke-linejoin:round"></line><line x1="63.26" y1="401.07" x2="416.75" y2="401.07" style="fill:none;stroke:#263238;stroke-linecap:round;stroke-linejoin:round"></line><line x1="63.26" y1="383.68" x2="430.89" y2="383.68" style="fill:none;stroke:#263238;stroke-linecap:round;stroke-linejoin:round"></line><rect x="137.89" y="250.08" width="202.22" height="150.6" style="fill:#fff;stroke:#263238;stroke-linecap:round;stroke-linejoin:round"></rect><rect x="171.75" y="271.08" width="134.51" height="108.6" style="fill:#fff;stroke:#263238;stroke-linecap:round;stroke-linejoin:round"></rect><rect x="187.75" y="283.68" width="102.51" height="83.4" style="fill:#263238;stroke:#263238;stroke-linecap:round;stroke-linejoin:round"></rect><rect x="192.32" y="287.68" width="93.38" height="75.4" style="fill:#9c9c9c"></rect><g style="clip-path:url(#freepik--clip-path--inject-23)"><path d="M195.48,342.74a14.12,14.12,0,0,1,3.9-9.12c3.91-3.9,10.94-2.08,15.63-5.21s4.68-9.11,4.68-9.11,1.31,2.08,3.13,4.43a9.38,9.38,0,0,1,1.82,5.2s7.55-.26,7.29-9.89-1.82-15.1,1.31-18l3.12-2.86s-1.3,6.51.52,9.89,7,2.87,14.84,7.82,7.55,11.45,7.55,11.45a58.7,58.7,0,0,1,2.09-6c1-2.34,1-6.77,1-6.77s1,5.47,5.47,8.34,7.81,4.42,8.07,8.07.26,5.21.26,5.21l2.87-6.25s.26-.52,2.86,2.6S286.88,344,286.88,344v19.79H191.05V350.55S191.05,343,195.48,342.74Z" style="fill:#CA0000"></path><path d="M195.48,342.74a14.12,14.12,0,0,1,3.9-9.12c3.91-3.9,10.94-2.08,15.63-5.21s4.68-9.11,4.68-9.11,1.31,2.08,3.13,4.43a9.38,9.38,0,0,1,1.82,5.2s7.55-.26,7.29-9.89-1.82-15.1,1.31-18l3.12-2.86s-1.3,6.51.52,9.89,7,2.87,14.84,7.82,7.55,11.45,7.55,11.45a58.7,58.7,0,0,1,2.09-6c1-2.34,1-6.77,1-6.77s1,5.47,5.47,8.34,7.81,4.42,8.07,8.07.26,5.21.26,5.21l2.87-6.25s.26-.52,2.86,2.6S286.88,344,286.88,344v19.79H191.05V350.55S191.05,343,195.48,342.74Z" style="fill:#fff;opacity:0.5"></path><path d="M206.15,344s34.38-14.06,37.76-14.58,5,1.56,5.21,2.86.26,4.17-1,4.43-28.91,9.11-28.91,9.11" style="fill:none;stroke:#263238;stroke-miterlimit:10"></path><line x1="248.6" y1="338.05" x2="270.73" y2="344.04" style="fill:none;stroke:#263238;stroke-miterlimit:10"></line><line x1="237.4" y1="340.91" x2="262.4" y2="347.16" style="fill:none;stroke:#263238;stroke-miterlimit:10"></line></g><rect x="192.32" y="287.68" width="93.38" height="75.4" style="fill:none;stroke:#263238;stroke-linecap:round;stroke-linejoin:round"></rect><rect x="192.32" y="287.68" width="93.38" height="9" style="fill:#263238;stroke:#263238;stroke-linecap:round;stroke-linejoin:round"></rect><rect x="129.76" y="247.65" width="218.49" height="4.85" style="fill:#fff;stroke:#263238;stroke-linecap:round;stroke-linejoin:round"></rect><rect x="125.25" y="244.35" width="227.51" height="4.44" style="fill:#fff;stroke:#263238;stroke-linecap:round;stroke-linejoin:round"></rect><rect x="129.76" y="400.35" width="218.49" height="4.85" transform="translate(478.01 805.55) rotate(180)" style="fill:#fff;stroke:#263238;stroke-linecap:round;stroke-linejoin:round"></rect><rect x="125.25" y="404.07" width="227.51" height="4.44" transform="translate(478.01 812.57) rotate(180)" style="fill:#fff;stroke:#263238;stroke-linecap:round;stroke-linejoin:round"></rect><rect x="192.32" y="348.5" width="93.38" height="5" style="fill:#263238;stroke:#263238;stroke-linecap:round;stroke-linejoin:round"></rect><rect x="197.76" y="345" width="5.5" height="12.5" style="fill:#263238;stroke:#263238;stroke-linecap:round;stroke-linejoin:round"></rect><rect x="223.43" y="345" width="5.5" height="12.5" style="fill:#263238;stroke:#263238;stroke-linecap:round;stroke-linejoin:round"></rect><rect x="249.09" y="345" width="5.5" height="12.5" style="fill:#263238;stroke:#263238;stroke-linecap:round;stroke-linejoin:round"></rect><rect x="274.76" y="345" width="5.5" height="12.5" style="fill:#263238;stroke:#263238;stroke-linecap:round;stroke-linejoin:round"></rect></g><g id="freepik--Character--inject-23"><ellipse cx="311.25" cy="428.69" rx="131.66" ry="17.49" style="fill:#CA0000"></ellipse><ellipse cx="311.25" cy="428.69" rx="131.66" ry="17.49" style="fill:#fff;opacity:0.5"></ellipse><path d="M323.77,414.25s-55.54,8.26-56.39,8.69-2.54,1.48-1.91,2.33,9.33,0,9.33,0l3-1.27,42.4-1.91-18,18.87s-1.27,1.91-.64,2.54,3.18,1.06,3.61.43,1.48-2.55,1.48-2.55l23.53-18,42.41,6.57s-.43.85,1.06,1.28,7.42,2.54,7.63,1.27,0-3-1.7-3.39S328,414.67,328,414.67Z" style="fill:#263238;stroke:#263238;stroke-linecap:round;stroke-linejoin:round"></path><rect x="321.65" y="398.77" width="8.9" height="18.44" rx="3.97" style="fill:#263238;stroke:#263238;stroke-linecap:round;stroke-linejoin:round"></rect><path d="M319.32,382H333.1a0,0,0,0,1,0,0v19.67a4.28,4.28,0,0,1-4.28,4.28h-5.21a4.28,4.28,0,0,1-4.28-4.28V382A0,0,0,0,1,319.32,382Z" style="fill:#263238;stroke:#263238;stroke-linecap:round;stroke-linejoin:round"></path><path d="M385.89,352.13c-2.16,3.51-3.3,7.56-5.41,11.14A48,48,0,0,1,338,386.9c-16.54-.22-27.35-3-39.22-7.85s-21.42-10.39-25.44-16.32S254.87,342,248.09,334.11s-6.15-9.12-11-10.82-2.54-7.2,3.82-11.66,13.78-1.06,17.17,3,13.15,8.91,26.29,16.11,29.26,8.91,39.43,5.73,13.57-13.57,13.79-24.38-3.19-21-13.15-34.35-18.44-21.2-16.32-31.37,16.53-28,22.68-26.29,14.84,16.32,38.8,22,42.61,4.45,44.31,3,11.87-18.65,18.23-21.62,12.93,2.75,12.51,7.21S421.93,280.47,419,288.31s-29.69,58.31-29.69,58.31Z" style="fill:#CA0000"></path><g style="clip-path:url(#freepik--clip-path-2--inject-23)"><path d="M386,352c-9.42-.86-18.59-8.39-32.86-8.85-16.73-.54-30.76,27.52-52.88,27.52a50.87,50.87,0,0,1-26.26-7c4.34,5.6,13.5,10.8,24.78,15.43,11.87,4.88,22.68,7.63,39.22,7.85a48,48,0,0,0,42.5-23.63c2.11-3.58,3.25-7.63,5.41-11.14Z" style="opacity:0.2"></path><path d="M414.63,279.47s26.44-52.87,28.06-53.41,3.77,1.62,3.77,5.39S419,288.31,419,288.31Z" style="opacity:0.2"></path></g><path d="M385.89,352.13c-2.16,3.51-3.3,7.56-5.41,11.14A48,48,0,0,1,338,386.9c-16.54-.22-27.35-3-39.22-7.85s-21.42-10.39-25.44-16.32S254.87,342,248.09,334.11s-6.15-9.12-11-10.82-2.54-7.2,3.82-11.66,13.78-1.06,17.17,3,13.15,8.91,26.29,16.11,29.26,8.91,39.43,5.73,13.57-13.57,13.79-24.38-3.19-21-13.15-34.35-18.44-21.2-16.32-31.37,16.53-28,22.68-26.29,14.84,16.32,38.8,22,42.61,4.45,44.31,3,11.87-18.65,18.23-21.62,12.93,2.75,12.51,7.21S421.93,280.47,419,288.31s-29.69,58.31-29.69,58.31Z" style="fill:none;stroke:#263238;stroke-linecap:round;stroke-linejoin:round"></path><path d="M413.88,245.06s-9.54,17.39-10,19.08" style="fill:#fff;stroke:#263238;stroke-linecap:round;stroke-linejoin:round"></path><path d="M293.67,283.75s-1.17,0-4.45-1.37-5.2-2.87-8-3-10.07,5.93-10.07,9.22,10.91,3.39,14.63,3.5,7.95.42,8.79.11.75-8,.11-8.27A1.7,1.7,0,0,0,293.67,283.75Z" style="fill:#fff;stroke:#263238;stroke-linecap:round;stroke-linejoin:round"></path><path d="M297.59,283l-4.77.43a23.61,23.61,0,0,1,.85,7.1,33.64,33.64,0,0,1-1.17,8.59l6.36-.11s3-7.42,3-10.5S297.59,283,297.59,283Z" style="fill:#fff;stroke:#263238;stroke-linecap:round;stroke-linejoin:round"></path><path d="M349.11,254.6s-10.81,13.78-14.52,18.55-11.24,7.74-12.09,8.06-24.91,1.8-24.91,1.8a13.41,13.41,0,0,1,1.27,7.74c-.53,4.67-1.59,9.54-1.59,9.54s5.52.43,14.63-1.48,14.31-.32,19.61-5,15.16-28.94,17.07-33.18S351.44,253.76,349.11,254.6Z" style="fill:#263238;stroke:#263238;stroke-linecap:round;stroke-linejoin:round"></path><path d="M222.22,395.8s-6.15,5.3-12.51,10.81-19.5,9.76-26.71,11.24-15.26,2.12-15.9,3.39-1.27,3.18,4.24,4.67a177,177,0,0,0,18.45,4c5.72.85,8.48.43,11.23-.42a42.63,42.63,0,0,1,6.36-1.27l-.63,3s3,.63,11,.42,10.18-.42,11-1.7a6.09,6.09,0,0,0,.84-3s3.82-8.27,3.4-12.09a15.9,15.9,0,0,0-1.7-5.93L236,401.1Z" style="fill:#fff;stroke:#263238;stroke-linecap:round;stroke-linejoin:round"></path><path d="M233,414.88a17.46,17.46,0,0,0-1.44-5.42,103.47,103.47,0,0,1-13.41,1.82s2.55-4,.85-6.79-5.93-.63-5.93-.63l-.26,0-3.14,2.71c-6.36,5.52-19.5,9.76-26.71,11.24s-15.26,2.12-15.9,3.39-1.27,3.18,4.24,4.67a177,177,0,0,0,18.45,4c5.72.85,8.48.43,11.23-.42a42.63,42.63,0,0,1,6.36-1.27l-.63,3s3,.63,11,.42,10.18-.42,11-1.7a6.09,6.09,0,0,0,.84-3S233.46,418.7,233,414.88Z" style="fill:#263238;stroke:#263238;stroke-linecap:round;stroke-linejoin:round"></path><path d="M168.16,422.73a65.33,65.33,0,0,0,24.38,5.3c12.93,0,11.66-.85,16.33-.85s13.78,1.27,18.86-.85" style="fill:none;stroke:#fff;stroke-linecap:round;stroke-linejoin:round"></path><path d="M258.05,314.6s-2.54-1.27-4.87,5.09S226,371.63,222,378.2a148.44,148.44,0,0,1-10.81,14.63s7.63,6.36,13.35,9.54a89,89,0,0,0,11.67,5.3s14-25.44,20.77-38.79,19.51-35.62,19.51-35.62,3.18-6.57-5.3-12.93S258.05,314.6,258.05,314.6Z" style="fill:#263238;stroke:#263238;stroke-linecap:round;stroke-linejoin:round"></path><path d="M333.53,329.44s-8.48-1.27-18.45-12.08S301.3,303.9,301.3,303.9s-8.48-10.71-16.75-14.95-17.59-3.61-22.89,8.9-18.87,54.49-20.36,62.55-2.75,13.14-2.12,14.62,8.7,3.82,14.42,5.52,5.72,1.06,7-1.06,16.11-40.07,16.11-40.07,10.6,16.75,27.35,20.14,25.86.85,35.62-3.39,19.5-11,17-18.45S333.53,329.44,333.53,329.44Z" style="fill:#263238;stroke:#263238;stroke-linecap:round;stroke-linejoin:round"></path><path d="M247.45,361.88s12.93-26.29,16.11-39.65" style="fill:none;stroke:#fff;stroke-linecap:round;stroke-linejoin:round"></path><path d="M276.71,339.41s9.75-32.44,10.39-37.32" style="fill:none;stroke:#fff;stroke-linecap:round;stroke-linejoin:round"></path><path d="M283.49,317.15s27.35,7.42,43.46,12.5" style="fill:none;stroke:#fff;stroke-linecap:round;stroke-linejoin:round"></path><path d="M305.33,311.11s23,21.55,31.84,25" style="fill:none;stroke:#fff;stroke-linecap:round;stroke-linejoin:round"></path><path d="M383.14,259.59l-.63-.07c-3.2-.36-17.7-2-22.59-3.33-5.51-1.48-9.22-3.39-10.81-1.59s-21.63,41.88-21.73,43.89,5.09,9.86,4.56,11.87-4.67,5-5,6.68a10.08,10.08,0,0,1-.63,2.33c-.11.32-.32,1.27-.32,1.27s-11.87-7.63-17.6-11.76-7.52-5.3-7.1-5,5.3,11.23,15.27,17.91,14.31,9.12,21.3,12,24.49,9.64,26.61,10,6.78,2.12,12.51-2.75,43.78-58,43.67-59.68-19.08-15.27-22.79-16.75-15-5-15-5" style="fill:#263238;stroke:#263238;stroke-linecap:round;stroke-linejoin:round"></path><path d="M343.92,318.63a2.31,2.31,0,1,1-2.23-1.7A2,2,0,0,1,343.92,318.63Z" style="fill:#fff;stroke:#263238;stroke-linecap:round;stroke-linejoin:round"></path><path d="M339.25,323.29A2.31,2.31,0,1,1,337,321.6,2,2,0,0,1,339.25,323.29Z" style="fill:#fff;stroke:#263238;stroke-linecap:round;stroke-linejoin:round"></path><path d="M375.19,266.69s-11.88,8.27-20,16.53-17.59,17.5-17.81,19.51,4.24,6.57,4.35,7.63a55.6,55.6,0,0,0,1.8,5.73l14-8.8,40.29-41.77s-10.61-.53-16.33-.32S375.19,266.69,375.19,266.69Z" style="fill:#fff;stroke:#263238;stroke-linecap:round;stroke-linejoin:round"></path><path d="M370.84,277l-.32,3.82s-15.26,13-17.59,15.26-6.47,5.83-6.79,7.21.11,3.92-1.06,6.15a35,35,0,0,1-2.22,3.71l.63,3,10.81-7s7.85-10.81,11.56-16.11a100.48,100.48,0,0,0,6.78-11.56l6.57-2.65-.42-7.95Z" style="fill:#CA0000;stroke:#263238;stroke-linecap:round;stroke-linejoin:round"></path><path d="M376,274.74l-9.32,5.2,6.25-13s4.77-3.92,4.77-1.48S376,274.74,376,274.74Z" style="fill:#fff;stroke:#263238;stroke-linecap:round;stroke-linejoin:round"></path><line x1="375.14" y1="240.64" x2="376.76" y2="240.64" style="fill:none;stroke:#263238;stroke-linecap:round;stroke-linejoin:round"></line><path d="M371.9,224.07s-4,5.09-4.24,6.36,1.17,4,1.27,5,1.38.32,2-1.81,3.49-8.9,3.49-8.9S373.7,222.06,371.9,224.07Z" style="fill:#263238;stroke:#263238;stroke-linecap:round;stroke-linejoin:round"></path><path d="M371.3,227.44s-1.82,5.77-2.73,10a42.31,42.31,0,0,0-.46,13.81c.61,4.1,1.37,14.87,1.82,16.09s3,1.82,4.4,2a3.6,3.6,0,0,0,2.13-.31s-1.18,5.73-.43,5.73,18-10,19.39-10.88,2.88-10.17,2.88-10.17l3.78-3.31a4.75,4.75,0,0,0,1.81-2.3c.32-1.66,1.3-4.8,1-6.29a3.62,3.62,0,0,0-2.19-2.82s3.48-11.38,2.88-14.72c0,0,1.21-3.94-7.29-6.52s-20.93-2.43-24.88.91-3,5.61-2.28,6.37l.76.76Z" style="fill:#fff;stroke:#263238;stroke-linecap:round;stroke-linejoin:round"></path><path d="M398.3,217.73c-8.49-2.58-20.93-2.43-24.88.91s-3,5.61-2.28,6.37l.76.76a12.34,12.34,0,0,0,8.5,2.73c5.16-.3,12.44-3.49,16.39-3.49s1.67,4-1.22,6.07-1.82,3,.46,4.7,1.36,3,.76,4.86,2,2.43,2.88,1.52a14.49,14.49,0,0,0,1.67-2.58,1.87,1.87,0,0,1,1.37-.61s3.48-11.38,2.88-14.72C405.59,224.25,406.8,220.31,398.3,217.73Z" style="fill:#263238;stroke:#263238;stroke-linecap:round;stroke-linejoin:round"></path><polyline points="376.45 255.66 371.6 254.45 375.59 245.54 375.59 240.17" style="fill:none;stroke:#263238;stroke-linecap:round;stroke-linejoin:round"></polyline><line x1="372.81" y1="260.06" x2="377.21" y2="260.52" style="fill:none;stroke:#263238;stroke-linecap:round;stroke-linejoin:round"></line><path d="M376.46,269s15-6.67,16.84-8,3.64-6.67,3.64-6.67" style="fill:none;stroke:#263238;stroke-linecap:round;stroke-linejoin:round"></path><path d="M376.76,240.64h9.81a3.69,3.69,0,0,1,3.69,3.69v1a4.82,4.82,0,0,1-4.82,4.82h-3.86a4.82,4.82,0,0,1-4.82-4.82v-4.74a0,0,0,0,1,0,0Z" style="fill:#263238;stroke:#263238;stroke-linecap:round;stroke-linejoin:round"></path><path d="M367.37,240.64h3.45a4.32,4.32,0,0,1,4.32,4.32v.93a3.3,3.3,0,0,1-3.3,3.3H363a0,0,0,0,1,0,0V245a4.32,4.32,0,0,1,4.32-4.32Z" transform="translate(738.19 489.84) rotate(180)" style="fill:#263238;stroke:#263238;stroke-linecap:round;stroke-linejoin:round"></path><path d="M386.12,240.64l15.22-1.4L401,240l-10.67,2.26S387.48,240.58,386.12,240.64Z" style="fill:#263238;stroke:#263238;stroke-linecap:round;stroke-linejoin:round"></path><path d="M403.7,244.85s.14-2.91-1.14-3.18-3.44,3.18-3.73,3.58,1.15-.13,1.29,1.06-.71,1.19-1,1.72" style="fill:none;stroke:#263238;stroke-linecap:round;stroke-linejoin:round"></path><path d="M398.83,245.25s1.29-2.12,2.72-.53a2.75,2.75,0,0,1,.29,3.31" style="fill:none;stroke:#263238;stroke-linecap:round;stroke-linejoin:round"></path><path d="M378.9,239.76s4.77-2.54,7.42-2.43,3.28,1.48,3.28,1.48-2.44-1.27-3.92-.74-4,2.12-5.51,2.22S378.9,239.76,378.9,239.76Z" style="fill:#263238;stroke:#263238;stroke-linecap:round;stroke-linejoin:round"></path><path d="M374.34,239.66a12.26,12.26,0,0,0-3.08-.85c-2.86-.64-3.39-.42-2.75-.11a43.45,43.45,0,0,0,4.87,1.49C375.14,240.64,374.34,239.66,374.34,239.66Z" style="fill:#263238;stroke:#263238;stroke-linecap:round;stroke-linejoin:round"></path><polygon points="377.57 274.1 378.37 284.39 398.82 264.89 396.39 262.24 377.57 274.1" style="fill:#fff;stroke:#263238;stroke-linecap:round;stroke-linejoin:round"></polygon><path d="M269.39,283.22s-2.33,1.81-2.43,2.87,2.86,6.15,4,6.89.85.85,1.28-.11-1.91-9.43-2.12-10S269.39,283.22,269.39,283.22Z" style="fill:#fff;stroke:#263238;stroke-linecap:round;stroke-linejoin:round"></path><path d="M273,279.62s-2.86,0-3.71,1.17-.21,2.75.42,4.66,1.8,6.36,2.55,7.42,2.65,1.38,2.86-.32-.74-10.39-1-11.76S273,279.62,273,279.62Z" style="fill:#fff;stroke:#263238;stroke-linecap:round;stroke-linejoin:round"></path><path d="M280.52,279s-4.87-2.43-5.93-2.43-2.23,1.48-2.23,3.49,1.17,9,1.27,10.5.75,3,1.7,2.65,1.48-.64,2-2.76a76.48,76.48,0,0,0,.85-8.69" style="fill:#fff;stroke:#263238;stroke-linecap:round;stroke-linejoin:round"></path><path d="M288.58,286.62,283,294.78s.53,2.12,2,1.48,3.6-3,5.19-4.66,2.55-1.8,1.91-3.39a5.91,5.91,0,0,0-2.54-2.55s-2.55-4.45-5.3-6.25-3.93-1.91-5-.21-2.54,11.55-2.54,13.46,1,3,1.8,2.44,2.12-2.76,2.54-4.45,3-8,3-8" style="fill:#fff;stroke:#263238;stroke-linecap:round;stroke-linejoin:round"></path><path d="M239.18,375l8.27-13.14,9.54,14a44.81,44.81,0,0,0-2.12,6.79c-.42,2.54-.63,7.42-1.48,8s-8.06,0-12.3-1.91-3.81-5.08-3.39-7.63S239.18,375,239.18,375Z" style="fill:#fff;stroke:#263238;stroke-linecap:round;stroke-linejoin:round"></path><path d="M251.06,384.14s.84-5.09-3.4-6.15-8.9-1.06-10.17.85-4.45,7-5.73,7.21-16.11-3.82-19.71-4.88-3.61,4.67-2.55,8.27,9.12,9.33,14,11,9.76,3,9.76,3l-.43,1.49s15.69,4.24,17.18,4.24,1.9-3,1.9-3,4.46-1.91,4.46-6.15.21-12.3.21-12.3S254,384.35,251.06,384.14Z" style="fill:#263238;stroke:#263238;stroke-linecap:round;stroke-linejoin:round"></path><path d="M249.15,404.07a46.43,46.43,0,0,0-5.51-2.12s-2.12.64-3.18.85-2.12,0-7-3.82-17.39-12.72-21-14.63c-2.17-1.15-3.11.63-3.51,2.22a15.71,15.71,0,0,0,.54,2.87c1.06,3.6,9.12,9.33,14,11s9.76,3,9.76,3l-.43,1.49s15.69,4.24,17.18,4.24,1.9-3,1.9-3A6.75,6.75,0,0,0,249.15,404.07Z" style="fill:#fff;stroke:#263238;stroke-linecap:round;stroke-linejoin:round"></path><polygon points="240.67 407.04 241.3 403.43 233.25 403.43 232.82 404.92 240.67 407.04" style="fill:#263238;stroke:#263238;stroke-linecap:round;stroke-linejoin:round"></polygon><path d="M276.5,351.49s4.24,8.06,17.17,8.91,24.17-1.49,30.53-7.85,9.75-14.42,17.38-18.66,13.36-.63,24.81,2.34,16.53,1.27,16.53,1.27,7.64-.43,10-3.82,2.76-8.05,5.09-5.72,5.3,17.38,2.12,23.53-3.39,7.42-23.11,3-20.59-6.08-26.1-2.69-11.67,13.6-23.51,19.1c-13.72,6.37-26.5,5.64-38.37,3.09s-18.24-14.2-18.24-14.2" style="fill:#CA0000;stroke:#263238;stroke-linecap:round;stroke-linejoin:round"></path><path d="M357.6,296.94s-3.18-3.06-5.38-5.62a20.92,20.92,0,0,1-4.27-7.08c-1.34-3.3-2.81-5.87-4.52-5.26s-7.69-.12-8.43,1.1-4.76,6.84-5.12,8.06,2.07,2.93,3.05,3.91S335,294,335.86,294s1.83-1.58,1.83-1.58a26.41,26.41,0,0,0,3.3,3.29,9.61,9.61,0,0,0,3.66,1.1l7,7.58Z" style="fill:#fff;stroke:#263238;stroke-linecap:round;stroke-linejoin:round"></path><polygon points="346.49 299.01 353.32 292.66 355.15 294.37 348.19 300.6 346.49 299.01" style="fill:#263238;stroke:#263238;stroke-linecap:round;stroke-linejoin:round"></polygon><line x1="337.69" y1="292.42" x2="334.76" y2="291.44" style="fill:none;stroke:#263238;stroke-linecap:round;stroke-linejoin:round"></line><path d="M356,294.07a2.57,2.57,0,1,1-2.56-2.51A2.53,2.53,0,0,1,356,294.07Z" style="fill:#fff;stroke:#263238;stroke-linecap:round;stroke-linejoin:round"></path><path d="M413,275.38s4.45,2.12,6.36,4,3.18,3.18,1.7,7.63-28,51.52-29.69,54.06-5.3,4.24-8.26,2.55-35.83-38.38-35.83-38.38l10.81-10.38L380,314l18.23-27.35" style="fill:#263238;stroke:#263238;stroke-linecap:round;stroke-linejoin:round"></path><polyline points="392.65 323.07 379.96 313.97 393.63 317.21" style="fill:none;stroke:#fff;stroke-linecap:round;stroke-linejoin:round"></polyline><polyline points="365.07 301.28 379.96 313.97 395.86 288.78" style="fill:none;stroke:#fff;stroke-linecap:round;stroke-linejoin:round"></polyline></g></svg>